<?xml version="1.0" encoding="UTF-8" standalone="no"?>
<svg xmlns="http://www.w3.org/2000/svg" width="1070" height="530" viewBox="0 0 1070 530" shape-rendering="geometricPrecision" text-rendering="geometricPrecision">
<rect width="1070" height="530" fill="rgb(252,252,250)"/>
<polygon points="964.35,247.73 830.00,180.55 695.65,247.73 830.00,314.90" fill="#fcf6e6" stroke="#464646" stroke-width="2" stroke-linejoin="round"/>
<polygon points="830.00,479.45 695.65,412.27 695.65,247.73 830.00,314.90" fill="#e4dac8" stroke="#464646" stroke-width="2" stroke-linejoin="round"/>
<polygon points="964.35,412.27 964.35,247.73 830.00,314.90 830.00,479.45" fill="#ebe6d7" stroke="#464646" stroke-width="2" stroke-linejoin="round"/>
<line x1="964.35" y1="412.27" x2="830.00" y2="345.10" stroke="#3c3c3c" stroke-width="2" stroke-linecap="round"/>
<line x1="964.35" y1="412.27" x2="964.35" y2="247.73" stroke="#3c3c3c" stroke-width="2" stroke-linecap="round"/>
<line x1="964.35" y1="412.27" x2="830.00" y2="479.45" stroke="#3c3c3c" stroke-width="2" stroke-linecap="round"/>
<line x1="830.00" y1="345.10" x2="830.00" y2="180.55" stroke="#3c3c3c" stroke-width="2" stroke-linecap="round"/>
<line x1="830.00" y1="345.10" x2="695.65" y2="412.27" stroke="#3c3c3c" stroke-width="2" stroke-linecap="round"/>
<line x1="964.35" y1="247.73" x2="830.00" y2="180.55" stroke="#3c3c3c" stroke-width="2" stroke-linecap="round"/>
<line x1="964.35" y1="247.73" x2="830.00" y2="314.90" stroke="#3c3c3c" stroke-width="2" stroke-linecap="round"/>
<line x1="830.00" y1="180.55" x2="695.65" y2="247.73" stroke="#3c3c3c" stroke-width="2" stroke-linecap="round"/>
<line x1="830.00" y1="479.45" x2="695.65" y2="412.27" stroke="#3c3c3c" stroke-width="2" stroke-linecap="round"/>
<line x1="830.00" y1="479.45" x2="830.00" y2="314.90" stroke="#3c3c3c" stroke-width="2" stroke-linecap="round"/>
<line x1="695.65" y1="412.27" x2="695.65" y2="247.73" stroke="#3c3c3c" stroke-width="2" stroke-linecap="round"/>
<line x1="830.00" y1="314.90" x2="695.65" y2="247.73" stroke="#3c3c3c" stroke-width="2" stroke-linecap="round"/>
<line x1="830.00" y1="330.00" x2="673.23" y2="408.38" stroke="#c81e1e" stroke-width="4" stroke-linecap="round"/>
<polygon points="655.34,417.33 668.31,398.54 678.15,418.22" fill="#c81e1e"/>
<text x="595.27" y="432.37" fill="#c81e1e" font-family="Arial, Helvetica, sans-serif" font-size="28" font-weight="bold" text-anchor="start" dominant-baseline="hanging">+X</text>
<line x1="830.00" y1="330.00" x2="830.00" y2="136.09" stroke="#1e961e" stroke-width="4" stroke-linecap="round"/>
<polygon points="830.00,116.09 841.00,136.09 819.00,136.09" fill="#1e961e"/>
<text x="812.00" y="71.75" fill="#1e961e" font-family="Arial, Helvetica, sans-serif" font-size="28" font-weight="bold" text-anchor="start" dominant-baseline="hanging">+Y</text>
<line x1="830.00" y1="330.00" x2="673.23" y2="251.62" stroke="#1e3cc8" stroke-width="4" stroke-linecap="round"/>
<polygon points="655.34,242.67 678.15,241.78 668.31,261.46" fill="#1e3cc8"/>
<text x="585.27" y="207.63" fill="#1e3cc8" font-family="Arial, Helvetica, sans-serif" font-size="28" font-weight="bold" text-anchor="start" dominant-baseline="hanging">+Z</text>
<polyline points="640.00,330.00 640.18,333.73 640.72,337.45 641.63,341.16 642.89,344.85 644.50,348.51 646.47,352.13 648.79,355.71 651.46,359.24 654.46,362.72 657.80,366.13 661.47,369.48 665.46,372.75 669.76,375.94 674.36,379.04 679.26,382.05 684.45,384.96 689.92,387.76 695.65,390.46 701.64,393.04 707.87,395.50 714.34,397.83 721.02,400.04 727.91,402.11 735.00,404.05 742.27,405.84 749.70,407.49 757.29,408.99 765.02,410.34 772.87,411.54 780.82,412.59 788.88,413.47 797.01,414.20 805.20,414.77 813.44,415.17 821.71,415.42 830.00,415.50 838.29,415.42 846.56,415.17 854.80,414.77 862.99,414.20 871.12,413.47 879.18,412.59 887.13,411.54 894.98,410.34 902.71,408.99 910.30,407.49 917.73,405.84 925.00,404.05 932.09,402.11 938.98,400.04 945.66,397.83 952.13,395.50 958.36,393.04 964.35,390.46 970.08,387.76 975.55,384.96 980.74,382.05 985.64,379.04 990.24,375.94 994.54,372.75 998.53,369.48 1002.20,366.13 1005.54,362.72 1008.54,359.24 1011.21,355.71 1013.53,352.13 1015.50,348.51 1017.11,344.85 1018.37,341.16 1019.28,337.45 1019.82,333.73 1020.00,330.00 1019.82,326.27 1019.28,322.55 1018.68,320.09" fill="none" stroke="#1e961e" stroke-width="5" stroke-linecap="round" stroke-linejoin="round"/>
<polygon points="1008.54,300.76 1031.08,311.83 1011.26,325.72" fill="#1e961e"/>
<text x="862.99" y="432.20" fill="#1e961e" font-family="Arial, Helvetica, sans-serif" font-size="24" font-weight="bold" text-anchor="middle" dominant-baseline="hanging">+yaw</text>
<polyline points="914.97,499.94 918.23,498.11 921.31,495.96 924.23,493.50 926.96,490.72 929.51,487.64 931.87,484.25 934.03,480.58 936.00,476.61 937.77,472.37 939.33,467.86 940.68,463.08 941.82,458.05 942.75,452.78 943.47,447.28 943.97,441.55 944.25,435.60 944.31,429.46 944.16,423.13 943.79,416.62 943.20,409.95 942.40,403.12 941.38,396.15 940.15,389.06 938.71,381.86 937.07,374.55 935.22,367.17 933.17,359.71 930.92,352.19 928.49,344.64 925.86,337.05 923.05,329.45 920.07,321.85 916.91,314.27 913.59,306.72 910.11,299.21 906.47,291.76 902.69,284.39 898.78,277.10 894.73,269.91 890.56,262.83 886.27,255.89 881.88,249.08 877.38,242.43 872.80,235.95 868.14,229.64 863.40,223.53 858.60,217.61 853.74,211.92 848.84,206.44 843.91,201.20 838.94,196.21 833.96,191.47 828.98,187.00 823.99,182.80 819.02,178.87 814.06,175.24 809.14,171.90 804.26,168.86 799.43,166.13 794.65,163.71 789.94,161.60 785.31,159.82 780.76,158.36 776.31,157.23 771.96,156.43 767.72,155.95 763.60,155.81 759.60,156.00 755.74,156.52 752.02,157.37 748.45,158.55 745.03,160.06 741.77,161.89 738.69,164.04 736.76,165.67" fill="none" stroke="#c81e1e" stroke-width="5" stroke-linecap="round" stroke-linejoin="round"/>
<polygon points="724.00,183.39 723.83,158.28 745.11,169.79" fill="#c81e1e"/>
<text x="902.56" y="240.83" fill="#c81e1e" font-family="Arial, Helvetica, sans-serif" font-size="24" font-weight="bold" text-anchor="start" dominant-baseline="central">+pitch</text>
<polyline points="745.03,499.94 741.77,498.11 738.69,495.96 735.77,493.50 733.04,490.72 730.49,487.64 728.13,484.25 725.97,480.58 724.00,476.61 722.23,472.37 720.67,467.86 719.32,463.08 718.18,458.05 717.25,452.78 716.53,447.28 716.03,441.55 715.75,435.60 715.69,429.46 715.84,423.13 716.21,416.62 716.80,409.95 717.60,403.12 718.62,396.15 719.85,389.06 721.29,381.86 722.93,374.55 724.78,367.17 726.83,359.71 729.08,352.19 731.51,344.64 734.14,337.05 736.95,329.45 739.93,321.85 743.09,314.27 746.41,306.72 749.89,299.21 753.53,291.76 757.31,284.39 761.22,277.10 765.27,269.91 769.44,262.83 773.73,255.89 778.12,249.08 782.62,242.43 787.20,235.95 791.86,229.64 796.60,223.53 801.40,217.61 806.26,211.92 811.16,206.44 816.09,201.20 821.06,196.21 826.04,191.47 831.02,187.00 836.01,182.80 840.98,178.87 845.94,175.24 850.86,171.90 855.74,168.86 860.57,166.13 865.35,163.71 870.06,161.60 874.69,159.82 879.24,158.36 883.69,157.23 888.04,156.43 892.28,155.95 896.40,155.81 900.40,156.00 904.26,156.52 907.98,157.37 911.55,158.55 914.97,160.06 918.23,161.89 921.31,164.04 923.24,165.67" fill="none" stroke="#1e3cc8" stroke-width="5" stroke-linecap="round" stroke-linejoin="round"/>
<polygon points="936.00,183.39 914.89,169.79 936.17,158.28" fill="#1e3cc8"/>
<text x="757.44" y="240.83" fill="#1e3cc8" font-family="Arial, Helvetica, sans-serif" font-size="24" font-weight="bold" text-anchor="end" dominant-baseline="central">+roll</text>
<text x="20.00" y="18.00" fill="#141414" font-family="Arial, Helvetica, sans-serif" font-size="28" font-weight="bold" text-anchor="start" dominant-baseline="hanging">Euler rotation reference - asset-renderer iso pose [pitch=30, yaw=225, roll=0]</text>
<text x="20.00" y="75.00" fill="#141414" font-family="Arial, Helvetica, sans-serif" font-size="24" font-weight="bold" text-anchor="start" dominant-baseline="hanging">Right-hand rule for positive rotation</text>
<text x="20.00" y="127.00" fill="#c81e1e" font-family="Arial, Helvetica, sans-serif" font-size="17" font-weight="normal" text-anchor="start" dominant-baseline="hanging">+pitch (X-axis):  +Y rotates toward +Z</text>
<text x="20.00" y="153.00" fill="#5a5a5a" font-family="Arial, Helvetica, sans-serif" font-size="17" font-weight="normal" text-anchor="start" dominant-baseline="hanging">                  the object's top tips toward +Z</text>
<text x="20.00" y="179.00" fill="#1e961e" font-family="Arial, Helvetica, sans-serif" font-size="17" font-weight="normal" text-anchor="start" dominant-baseline="hanging">+yaw   (Y-axis):  +Z rotates toward +X</text>
<text x="20.00" y="205.00" fill="#5a5a5a" font-family="Arial, Helvetica, sans-serif" font-size="17" font-weight="normal" text-anchor="start" dominant-baseline="hanging">                  CCW spin viewed from above (+Y)</text>
<text x="20.00" y="231.00" fill="#1e3cc8" font-family="Arial, Helvetica, sans-serif" font-size="17" font-weight="normal" text-anchor="start" dominant-baseline="hanging">+roll  (Z-axis):  +X rotates toward +Y</text>
<text x="20.00" y="257.00" fill="#5a5a5a" font-family="Arial, Helvetica, sans-serif" font-size="17" font-weight="normal" text-anchor="start" dominant-baseline="hanging">                  the object's +X side rises</text>
<text x="20.00" y="309.00" fill="#141414" font-family="Arial, Helvetica, sans-serif" font-size="24" font-weight="bold" text-anchor="start" dominant-baseline="hanging">Visible faces in this pose</text>
<text x="20.00" y="361.00" fill="#5a5a5a" font-family="Consolas, 'Courier New', monospace" font-size="16" font-weight="normal" text-anchor="start" dominant-baseline="hanging">  top face       = +Y</text>
<text x="20.00" y="387.00" fill="#5a5a5a" font-family="Consolas, 'Courier New', monospace" font-size="16" font-weight="normal" text-anchor="start" dominant-baseline="hanging">  lower-left     = +X (east)</text>
<text x="20.00" y="413.00" fill="#5a5a5a" font-family="Consolas, 'Courier New', monospace" font-size="16" font-weight="normal" text-anchor="start" dominant-baseline="hanging">  lower-right    = -Z (north)</text>
<text x="20.00" y="465.00" fill="#5a5a5a" font-family="Arial, Helvetica, sans-serif" font-size="17" font-weight="normal" text-anchor="start" dominant-baseline="hanging">Note: arcs are visually corrected for screen perpendicularity,</text>
<text x="20.00" y="491.00" fill="#5a5a5a" font-family="Arial, Helvetica, sans-serif" font-size="17" font-weight="normal" text-anchor="start" dominant-baseline="hanging">not 3D-projection-accurate.</text>
</svg>